<?xml version="1.0" encoding="UTF-8"?>
<svg version="1.1" xmlns="http://www.w3.org/2000/svg" width="32" height="32">
<path d="M0 0 C3.5625 0.1875 3.5625 0.1875 5.5625 2.1875 C5.2355244 4.80330479 4.74210932 6.82828137 3.5625 9.1875 C4.160625 9.208125 4.75875 9.22875 5.375 9.25 C8.84925101 10.73896472 9.18457296 13.80009603 10.5625 17.1875 C11.284375 17.88875 12.00625 18.59 12.75 19.3125 C14.5625 21.1875 14.5625 21.1875 15.125 23.6875 C14.5625 26.1875 14.5625 26.1875 12.5 28.5625 C8.6808891 30.67519964 6.74337529 30.17570689 2.5625 29.1875 C1.82 28.960625 1.0775 28.73375 0.3125 28.5 C-1.7825471 27.91751614 -1.7825471 27.91751614 -4.4375 30.1875 C-8.59619464 29.89045038 -10.94157222 29.51811852 -14.4375 27.1875 C-15.09521812 21.15841723 -15.09521812 21.15841723 -13.125 18.25 C-11.4375 17.1875 -11.4375 17.1875 -8.4375 17.1875 C-8.47875 16.23875 -8.52 15.29 -8.5625 14.3125 C-8.4375 11.1875 -8.4375 11.1875 -6.4375 9.1875 C-5.4475 9.1875 -4.4575 9.1875 -3.4375 9.1875 C-4.0975 8.1975 -4.7575 7.2075 -5.4375 6.1875 C-4.73161765 0.25808824 -4.73161765 0.25808824 0 0 Z M-3.4375 12.1875 C-3.7675 13.8375 -4.0975 15.4875 -4.4375 17.1875 C-1.9625 18.6725 -1.9625 18.6725 0.5625 20.1875 C1.8825 19.1975 3.2025 18.2075 4.5625 17.1875 C4.06493908 14.43108584 4.06493908 14.43108584 2.5625 12.1875 C0.56291636 12.14669217 -1.43795254 12.14495644 -3.4375 12.1875 Z M-9.4375 21.1875 C-9.4375 22.5075 -9.4375 23.8275 -9.4375 25.1875 C-7.4575 25.6825 -7.4575 25.6825 -5.4375 26.1875 C-4.7775 24.8675 -4.1175 23.5475 -3.4375 22.1875 C-4.50395115 20.89116379 -4.50395115 20.89116379 -7 21.125 C-7.804375 21.145625 -8.60875 21.16625 -9.4375 21.1875 Z M3.5625 22.1875 C3.5625 23.1775 3.5625 24.1675 3.5625 25.1875 C6.0375 25.6825 6.0375 25.6825 8.5625 26.1875 C9.2225 25.1975 9.8825 24.2075 10.5625 23.1875 C9.58399805 22.16645449 8.58269573 21.1668879 7.5625 20.1875 C6.10024984 20.09504997 6.10024984 20.09504997 3.5625 22.1875 Z " fill="#F2F6E8" transform="translate(15.4375,1.8125)"/>
</svg>
