<svg width="1167" height="730" viewBox="0 0 1167 730" fill="none" xmlns="http://www.w3.org/2000/svg">
<g clip-path="url(#clip0_175_55)">
<rect width="1166.4" height="729.6" fill="url(#paint0_linear_175_55)"/>
<rect width="1166.4" height="729.6" fill="url(#paint1_linear_175_55)"/>
<g filter="url(#filter0_f_175_55)">
<mask id="path-1-inside-1_175_55" fill="white">
<path d="M636.762 606.481C636.762 420.51 787.521 269.75 973.493 269.75C1159.46 269.75 1310.22 420.51 1310.22 606.481C1310.22 792.453 1159.46 943.213 973.493 943.213C787.521 943.213 636.762 792.453 636.762 606.481Z"/>
</mask>
<path d="M636.762 606.481C636.762 420.51 787.521 269.75 973.493 269.75C1159.46 269.75 1310.22 420.51 1310.22 606.481C1310.22 792.453 1159.46 943.213 973.493 943.213C787.521 943.213 636.762 792.453 636.762 606.481Z" fill="#C800DE" fill-opacity="0.2"/>
<path d="M973.493 943.213V942.413C787.963 942.413 637.562 792.011 637.562 606.481H636.762H635.962C635.962 792.895 787.08 944.013 973.493 944.013V943.213ZM1310.22 606.481H1309.42C1309.42 792.011 1159.02 942.413 973.493 942.413V943.213V944.013C1159.91 944.013 1311.02 792.895 1311.02 606.481H1310.22ZM973.493 269.75V270.55C1159.02 270.55 1309.42 420.952 1309.42 606.481H1310.22H1311.02C1311.02 420.068 1159.91 268.95 973.493 268.95V269.75ZM973.493 269.75V268.95C787.08 268.95 635.962 420.068 635.962 606.481H636.762H637.562C637.562 420.952 787.963 270.55 973.493 270.55V269.75Z" fill="#F5E9FF" fill-opacity="0.5" mask="url(#path-1-inside-1_175_55)"/>
</g>
<mask id="path-3-inside-2_175_55" fill="white">
<path d="M749.867 142.604L952.339 26.8683L1068.08 229.34L865.603 345.076L749.867 142.604Z"/>
</mask>
<path d="M749.867 142.604L952.339 26.8683L1068.08 229.34L865.603 345.076L749.867 142.604Z" fill="url(#paint2_linear_175_55)"/>
<path d="M749.867 142.604L749.47 141.91L748.776 142.307L749.173 143.002L749.867 142.604ZM952.339 26.8683L953.034 26.4712L952.637 25.7767L951.942 26.1737L952.339 26.8683ZM1068.08 229.34L1068.47 230.035L1069.17 229.638L1068.77 228.943L1068.08 229.34ZM865.603 345.076L864.909 345.473L865.306 346.168L866 345.771L865.603 345.076ZM749.867 142.604L750.264 143.299L952.736 27.5628L952.339 26.8683L951.942 26.1737L749.47 141.91L749.867 142.604ZM952.339 26.8683L951.644 27.2653L1067.38 229.737L1068.08 229.34L1068.77 228.943L953.034 26.4712L952.339 26.8683ZM1068.08 229.34L1067.68 228.646L865.206 344.382L865.603 345.076L866 345.771L1068.47 230.035L1068.08 229.34ZM865.603 345.076L866.298 344.679L750.562 142.207L749.867 142.604L749.173 143.002L864.909 345.473L865.603 345.076Z" fill="#F5E9FF" fill-opacity="0.5" mask="url(#path-3-inside-2_175_55)"/>
<mask id="path-5-inside-3_175_55" fill="white">
<path d="M79 531.6L99.7375 347.677L283.66 368.415L262.922 552.337L79 531.6Z"/>
</mask>
<path d="M79 531.6L99.7375 347.677L283.66 368.415L262.922 552.337L79 531.6Z" fill="url(#paint3_linear_175_55)"/>
<path d="M79 531.6L78.205 531.51L78.1154 532.305L78.9104 532.395L79 531.6ZM99.7375 347.677L99.8271 346.882L99.0322 346.793L98.9425 347.587L99.7375 347.677ZM283.66 368.415L284.455 368.504L284.545 367.709L283.75 367.62L283.66 368.415ZM262.922 552.337L262.833 553.132L263.628 553.222L263.717 552.427L262.922 552.337ZM79 531.6L79.795 531.689L100.532 347.767L99.7375 347.677L98.9425 347.587L78.205 531.51L79 531.6ZM99.7375 347.677L99.6478 348.472L283.57 369.21L283.66 368.415L283.75 367.62L99.8271 346.882L99.7375 347.677ZM283.66 368.415L282.865 368.325L262.128 552.247L262.922 552.337L263.717 552.427L284.455 368.504L283.66 368.415ZM262.922 552.337L263.012 551.542L79.0896 530.805L79 531.6L78.9104 532.395L262.833 553.132L262.922 552.337Z" fill="#8C8C8C" fill-opacity="0.5" mask="url(#path-5-inside-3_175_55)"/>
<mask id="path-7-inside-4_175_55" fill="white">
<path d="M209.996 55.6709L369.157 76.1305L348.698 235.292L189.536 214.832L209.996 55.6709Z"/>
</mask>
<path d="M209.996 55.6709L369.157 76.1305L348.698 235.292L189.536 214.832L209.996 55.6709Z" fill="url(#paint4_linear_175_55)"/>
<path d="M209.996 55.6709L210.098 54.8774L209.305 54.7754L209.203 55.5689L209.996 55.6709ZM369.157 76.1305L369.951 76.2325L370.053 75.439L369.259 75.337L369.157 76.1305ZM348.698 235.292L348.596 236.085L349.389 236.187L349.491 235.394L348.698 235.292ZM189.536 214.832L188.743 214.73L188.641 215.524L189.434 215.626L189.536 214.832ZM209.996 55.6709L209.894 56.4644L369.055 76.924L369.157 76.1305L369.259 75.337L210.098 54.8774L209.996 55.6709ZM369.157 76.1305L368.364 76.0285L347.904 235.19L348.698 235.292L349.491 235.394L369.951 76.2325L369.157 76.1305ZM348.698 235.292L348.8 234.498L189.638 214.039L189.536 214.832L189.434 215.626L348.596 236.085L348.698 235.292ZM189.536 214.832L190.33 214.934L210.79 55.7729L209.996 55.6709L209.203 55.5689L188.743 214.73L189.536 214.832Z" fill="#F5E9FF" fill-opacity="0.5" mask="url(#path-7-inside-4_175_55)"/>
<mask id="path-9-inside-5_175_55" fill="white">
<path d="M683.66 361.185L793.444 295.504L859.125 405.288L749.341 470.968L683.66 361.185Z"/>
</mask>
<path d="M683.66 361.185L793.444 295.504L859.125 405.288L749.341 470.968L683.66 361.185Z" fill="url(#paint5_linear_175_55)"/>
<path d="M683.66 361.185L683.249 360.498L682.563 360.909L682.974 361.595L683.66 361.185ZM793.444 295.504L794.131 295.093L793.72 294.406L793.033 294.817L793.444 295.504ZM859.125 405.288L859.536 405.974L860.222 405.563L859.811 404.877L859.125 405.288ZM749.341 470.968L748.655 471.379L749.065 472.066L749.752 471.655L749.341 470.968ZM683.66 361.185L684.071 361.871L793.855 296.19L793.444 295.504L793.033 294.817L683.249 360.498L683.66 361.185ZM793.444 295.504L792.758 295.914L858.438 405.698L859.125 405.288L859.811 404.877L794.131 295.093L793.444 295.504ZM859.125 405.288L858.714 404.601L748.93 470.282L749.341 470.968L749.752 471.655L859.536 405.974L859.125 405.288ZM749.341 470.968L750.028 470.558L684.347 360.774L683.66 361.185L682.974 361.595L748.655 471.379L749.341 470.968Z" fill="#F5E9FF" fill-opacity="0.5" mask="url(#path-9-inside-5_175_55)"/>
<mask id="path-11-inside-6_175_55" fill="white">
<path d="M738 -7.99805L780.983 -128.867L901.852 -85.8847L858.869 34.9845L738 -7.99805Z"/>
</mask>
<path d="M738 -7.99805L780.983 -128.867L901.852 -85.8847L858.869 34.9845L738 -7.99805Z" fill="url(#paint6_linear_175_55)"/>
<path d="M738 -7.99805L737.246 -8.26609L736.978 -7.51233L737.732 -7.24429L738 -7.99805ZM780.983 -128.867L781.251 -129.621L780.497 -129.889L780.229 -129.135L780.983 -128.867ZM901.852 -85.8847L902.606 -85.6167L902.874 -86.3704L902.12 -86.6385L901.852 -85.8847ZM858.869 34.9845L858.601 35.7383L859.355 36.0063L859.623 35.2525L858.869 34.9845ZM738 -7.99805L738.754 -7.73L781.736 -128.599L780.983 -128.867L780.229 -129.135L737.246 -8.26609L738 -7.99805ZM780.983 -128.867L780.715 -128.114L901.584 -85.131L901.852 -85.8847L902.12 -86.6385L781.251 -129.621L780.983 -128.867ZM901.852 -85.8847L901.098 -86.1528L858.115 34.7165L858.869 34.9845L859.623 35.2525L902.606 -85.6167L901.852 -85.8847ZM858.869 34.9845L859.137 34.2307L738.268 -8.75181L738 -7.99805L737.732 -7.24429L858.601 35.7383L858.869 34.9845Z" fill="#C27AFF" fill-opacity="0.5" mask="url(#path-11-inside-6_175_55)"/>
</g>
<defs>
<filter id="filter0_f_175_55" x="396.762" y="29.75" width="1153.46" height="1153.46" filterUnits="userSpaceOnUse" color-interpolation-filters="sRGB">
<feFlood flood-opacity="0" result="BackgroundImageFix"/>
<feBlend mode="normal" in="SourceGraphic" in2="BackgroundImageFix" result="shape"/>
<feGaussianBlur stdDeviation="120" result="effect1_foregroundBlur_175_55"/>
</filter>
<linearGradient id="paint0_linear_175_55" x1="0" y1="364.8" x2="1166.4" y2="364.8" gradientUnits="userSpaceOnUse">
<stop stop-color="#080514"/>
<stop offset="1" stop-color="#080514"/>
</linearGradient>
<linearGradient id="paint1_linear_175_55" x1="583.2" y1="0" x2="583.2" y2="729.6" gradientUnits="userSpaceOnUse">
<stop stop-color="#1E143C"/>
<stop offset="0.5" stop-color="#140A2D"/>
<stop offset="1" stop-color="#0F0823"/>
</linearGradient>
<linearGradient id="paint2_linear_175_55" x1="749.867" y1="142.604" x2="1068.08" y2="229.34" gradientUnits="userSpaceOnUse">
<stop stop-color="white" stop-opacity="0.1"/>
<stop offset="1" stop-color="white" stop-opacity="0"/>
</linearGradient>
<linearGradient id="paint3_linear_175_55" x1="79" y1="531.6" x2="283.66" y2="368.415" gradientUnits="userSpaceOnUse">
<stop stop-color="white" stop-opacity="0.1"/>
<stop offset="1" stop-color="white" stop-opacity="0"/>
</linearGradient>
<linearGradient id="paint4_linear_175_55" x1="209.996" y1="55.6709" x2="348.698" y2="235.292" gradientUnits="userSpaceOnUse">
<stop stop-color="white" stop-opacity="0.1"/>
<stop offset="1" stop-color="white" stop-opacity="0"/>
</linearGradient>
<linearGradient id="paint5_linear_175_55" x1="683.66" y1="361.185" x2="859.125" y2="405.288" gradientUnits="userSpaceOnUse">
<stop stop-color="white" stop-opacity="0.1"/>
<stop offset="1" stop-color="white" stop-opacity="0"/>
</linearGradient>
<linearGradient id="paint6_linear_175_55" x1="738" y1="-7.99805" x2="901.852" y2="-85.8847" gradientUnits="userSpaceOnUse">
<stop stop-color="white" stop-opacity="0.1"/>
<stop offset="1" stop-color="white" stop-opacity="0"/>
</linearGradient>
<clipPath id="clip0_175_55">
<rect width="1166.4" height="729.6" fill="white"/>
</clipPath>
</defs>
</svg>
