<svg width="1071" height="725" viewBox="0 0 1071 725" fill="none" xmlns="http://www.w3.org/2000/svg">
<g clip-path="url(#clip0_635_76)">
<rect width="1071" height="725" fill="#0F0C29"/>
<rect width="1071" height="725" fill="url(#paint0_linear_635_76)"/>
<g filter="url(#filter0_f_635_76)">
<path d="M-818.561 -103.979C-532.583 -233.589 -195.683 -106.829 -66.0728 179.149C63.5375 465.126 -63.2231 802.026 -349.201 931.637C-635.178 1061.25 -972.078 934.486 -1101.69 648.509C-1231.3 362.532 -1104.54 25.6312 -818.561 -103.979Z" fill="#9810FA" fill-opacity="0.3"/>
<path d="M-66.5281 179.355C62.968 465.081 -63.6812 801.686 -349.407 931.182C-635.133 1060.68 -971.737 934.029 -1101.23 648.303C-1230.73 362.577 -1104.08 25.9728 -818.355 -103.524C-532.629 -233.02 -196.024 -106.371 -66.5281 179.355Z" stroke="#F5E9FF" stroke-opacity="0.5"/>
</g>
<g filter="url(#filter1_f_635_76)">
<path d="M636.772 606.491C636.772 420.517 787.535 269.754 973.509 269.754C1159.48 269.754 1310.25 420.517 1310.25 606.491C1310.25 792.466 1159.48 943.228 973.509 943.228C787.535 943.228 636.772 792.466 636.772 606.491Z" fill="#C800DE" fill-opacity="0.2"/>
<path d="M973.51 270.254C1159.21 270.255 1309.75 420.793 1309.75 606.492C1309.75 792.19 1159.21 942.728 973.51 942.728C787.811 942.728 637.273 792.19 637.272 606.492C637.272 420.793 787.811 270.254 973.51 270.254Z" stroke="#F5E9FF" stroke-opacity="0.5"/>
</g>
<mask id="path-5-inside-1_635_76" fill="white">
<path d="M749.865 227.437L898.267 142.609L983.095 291.011L834.693 375.839L749.865 227.437Z"/>
</mask>
<path d="M749.865 227.437L898.267 142.609L983.095 291.011L834.693 375.839L749.865 227.437Z" fill="url(#paint1_linear_635_76)"/>
<path d="M749.865 227.437L749.369 226.569L748.501 227.065L748.997 227.933L749.865 227.437ZM898.267 142.609L899.135 142.113L898.639 141.245L897.771 141.741L898.267 142.609ZM983.095 291.011L983.591 291.879L984.459 291.383L983.963 290.514L983.095 291.011ZM834.693 375.839L833.825 376.335L834.321 377.203L835.189 376.707L834.693 375.839ZM749.865 227.437L750.361 228.305L898.763 143.477L898.267 142.609L897.771 141.741L749.369 226.569L749.865 227.437ZM898.267 142.609L897.399 143.105L982.227 291.507L983.095 291.011L983.963 290.514L899.135 142.113L898.267 142.609ZM983.095 291.011L982.599 290.143L834.197 374.97L834.693 375.839L835.189 376.707L983.591 291.879L983.095 291.011ZM834.693 375.839L835.561 375.342L750.733 226.941L749.865 227.437L748.997 227.933L833.825 376.335L834.693 375.839Z" fill="#F5E9FF" fill-opacity="0.5" mask="url(#path-5-inside-1_635_76)"/>
<mask id="path-7-inside-2_635_76" fill="white">
<path d="M78.9961 697.945L97.752 531.61L264.087 550.366L245.331 716.701L78.9961 697.945Z"/>
</mask>
<path d="M78.9961 697.945L97.752 531.61L264.087 550.366L245.331 716.701L78.9961 697.945Z" fill="url(#paint2_linear_635_76)"/>
<path d="M78.9961 697.945L78.0024 697.833L77.8903 698.826L78.884 698.939L78.9961 697.945ZM97.752 531.61L97.864 530.616L96.8703 530.504L96.7583 531.498L97.752 531.61ZM264.087 550.366L265.081 550.478L265.193 549.484L264.199 549.372L264.087 550.366ZM245.331 716.701L245.219 717.694L246.213 717.806L246.325 716.813L245.331 716.701ZM78.9961 697.945L79.9898 698.057L98.7457 531.722L97.752 531.61L96.7583 531.498L78.0024 697.833L78.9961 697.945ZM97.752 531.61L97.6399 532.604L263.975 551.359L264.087 550.366L264.199 549.372L97.864 530.616L97.752 531.61ZM264.087 550.366L263.093 550.254L244.337 716.589L245.331 716.701L246.325 716.813L265.081 550.478L264.087 550.366ZM245.331 716.701L245.443 715.707L79.1081 696.951L78.9961 697.945L78.884 698.939L245.219 717.694L245.331 716.701Z" fill="#8C8C8C" fill-opacity="0.5" mask="url(#path-7-inside-2_635_76)"/>
<mask id="path-9-inside-3_635_76" fill="white">
<path d="M228.274 55.6782L370.471 73.9578L352.192 216.155L209.995 197.875L228.274 55.6782Z"/>
</mask>
<path d="M228.274 55.6782L370.471 73.9578L352.192 216.155L209.995 197.875L228.274 55.6782Z" fill="url(#paint3_linear_635_76)"/>
<path d="M228.274 55.6782L228.402 54.6864L227.41 54.5589L227.283 55.5507L228.274 55.6782ZM370.471 73.9578L371.463 74.0853L371.591 73.0935L370.599 72.966L370.471 73.9578ZM352.192 216.155L352.064 217.146L353.056 217.274L353.183 216.282L352.192 216.155ZM209.995 197.875L209.003 197.748L208.875 198.739L209.867 198.867L209.995 197.875ZM228.274 55.6782L228.147 56.6701L370.344 74.9496L370.471 73.9578L370.599 72.966L228.402 54.6864L228.274 55.6782ZM370.471 73.9578L369.479 73.8303L351.2 216.027L352.192 216.155L353.183 216.282L371.463 74.0853L370.471 73.9578ZM352.192 216.155L352.319 215.163L210.122 196.883L209.995 197.875L209.867 198.867L352.064 217.146L352.192 216.155ZM209.995 197.875L210.987 198.003L229.266 55.8057L228.274 55.6782L227.283 55.5507L209.003 197.748L209.995 197.875Z" fill="#F5E9FF" fill-opacity="0.5" mask="url(#path-9-inside-3_635_76)"/>
<mask id="path-11-inside-4_635_76" fill="white">
<path d="M683.673 409.085L763.726 361.191L811.619 441.244L731.566 489.137L683.673 409.085Z"/>
</mask>
<path d="M683.673 409.085L763.726 361.191L811.619 441.244L731.566 489.137L683.673 409.085Z" fill="url(#paint4_linear_635_76)"/>
<path d="M683.673 409.085L683.159 408.227L682.301 408.74L682.815 409.598L683.673 409.085ZM763.726 361.191L764.584 360.678L764.07 359.82L763.212 360.333L763.726 361.191ZM811.619 441.244L812.133 442.102L812.991 441.589L812.477 440.731L811.619 441.244ZM731.566 489.137L730.708 489.651L731.222 490.509L732.08 489.996L731.566 489.137ZM683.673 409.085L684.186 409.943L764.239 362.049L763.726 361.191L763.212 360.333L683.159 408.227L683.673 409.085ZM763.726 361.191L762.867 361.705L810.761 441.757L811.619 441.244L812.477 440.731L764.584 360.678L763.726 361.191ZM811.619 441.244L811.106 440.386L731.053 488.279L731.566 489.137L732.08 489.996L812.133 442.102L811.619 441.244ZM731.566 489.137L732.425 488.624L684.531 408.571L683.673 409.085L682.815 409.598L730.708 489.651L731.566 489.137Z" fill="#F5E9FF" fill-opacity="0.5" mask="url(#path-11-inside-4_635_76)"/>
<mask id="path-13-inside-5_635_76" fill="white">
<path d="M14.46 118.165L-106.438 40.9227L-29.1963 -79.9756L91.702 -2.73356L14.46 118.165Z"/>
</mask>
<path d="M14.46 118.165L-106.438 40.9227L-29.1963 -79.9756L91.702 -2.73356L14.46 118.165Z" fill="url(#paint5_linear_635_76)"/>
<path d="M14.46 118.165L13.9216 119.007L14.7643 119.546L15.3027 118.703L14.46 118.165ZM-106.438 40.9227L-107.281 40.3843L-107.819 41.227L-106.977 41.7654L-106.438 40.9227ZM-29.1963 -79.9756L-28.6579 -80.8183L-29.5006 -81.3567L-30.039 -80.514L-29.1963 -79.9756ZM91.702 -2.73356L92.5447 -2.19516L93.0831 -3.03785L92.2404 -3.57625L91.702 -2.73356ZM14.46 118.165L14.9984 117.322L-105.9 40.0801L-106.438 40.9227L-106.977 41.7654L13.9216 119.007L14.46 118.165ZM-106.438 40.9227L-105.596 41.4611L-28.3536 -79.4372L-29.1963 -79.9756L-30.039 -80.514L-107.281 40.3843L-106.438 40.9227ZM-29.1963 -79.9756L-29.7347 -79.1329L91.1636 -1.89086L91.702 -2.73356L92.2404 -3.57625L-28.6579 -80.8183L-29.1963 -79.9756ZM91.702 -2.73356L90.8593 -3.27195L13.6173 117.626L14.46 118.165L15.3027 118.703L92.5447 -2.19516L91.702 -2.73356Z" fill="#F5E9FF" fill-opacity="0.5" mask="url(#path-13-inside-5_635_76)"/>
<mask id="path-15-inside-6_635_76" fill="white">
<path d="M738 86.6382L771.655 -8.00011L866.293 25.6549L832.638 120.293L738 86.6382Z"/>
</mask>
<path d="M738 86.6382L771.655 -8.00011L866.293 25.6549L832.638 120.293L738 86.6382Z" fill="url(#paint6_linear_635_76)"/>
<path d="M738 86.6382L737.058 86.3031L736.723 87.2453L737.665 87.5804L738 86.6382ZM771.655 -8.00011L771.99 -8.94231L771.048 -9.27737L770.713 -8.33517L771.655 -8.00011ZM866.293 25.6549L867.235 25.9899L867.571 25.0477L866.628 24.7127L866.293 25.6549ZM832.638 120.293L832.303 121.235L833.245 121.57L833.58 120.628L832.638 120.293ZM738 86.6382L738.942 86.9732L772.597 -7.66505L771.655 -8.00011L770.713 -8.33517L737.058 86.3031L738 86.6382ZM771.655 -8.00011L771.32 -7.05791L865.958 26.5971L866.293 25.6549L866.628 24.7127L771.99 -8.94231L771.655 -8.00011ZM866.293 25.6549L865.351 25.3198L831.696 119.958L832.638 120.293L833.58 120.628L867.235 25.9899L866.293 25.6549ZM832.638 120.293L832.973 119.351L738.335 85.696L738 86.6382L737.665 87.5804L832.303 121.235L832.638 120.293Z" fill="#C27AFF" fill-opacity="0.5" mask="url(#path-15-inside-6_635_76)"/>
</g>
<defs>
<filter id="filter0_f_635_76" x="-1536.37" y="-538.659" width="1904.98" height="1904.98" filterUnits="userSpaceOnUse" color-interpolation-filters="sRGB">
<feFlood flood-opacity="0" result="BackgroundImageFix"/>
<feBlend mode="normal" in="SourceGraphic" in2="BackgroundImageFix" result="shape"/>
<feGaussianBlur stdDeviation="100" result="effect1_foregroundBlur_635_76"/>
</filter>
<filter id="filter1_f_635_76" x="396.772" y="29.7544" width="1153.47" height="1153.47" filterUnits="userSpaceOnUse" color-interpolation-filters="sRGB">
<feFlood flood-opacity="0" result="BackgroundImageFix"/>
<feBlend mode="normal" in="SourceGraphic" in2="BackgroundImageFix" result="shape"/>
<feGaussianBlur stdDeviation="120" result="effect1_foregroundBlur_635_76"/>
</filter>
<linearGradient id="paint0_linear_635_76" x1="535.5" y1="0" x2="535.5" y2="725" gradientUnits="userSpaceOnUse">
<stop stop-color="#C7C4E0"/>
<stop offset="0.5" stop-color="#6850BE"/>
<stop offset="1" stop-color="#5252B5"/>
</linearGradient>
<linearGradient id="paint1_linear_635_76" x1="749.865" y1="227.437" x2="983.095" y2="291.011" gradientUnits="userSpaceOnUse">
<stop stop-color="white" stop-opacity="0.1"/>
<stop offset="1" stop-color="white" stop-opacity="0"/>
</linearGradient>
<linearGradient id="paint2_linear_635_76" x1="78.9961" y1="697.945" x2="264.087" y2="550.366" gradientUnits="userSpaceOnUse">
<stop stop-color="white" stop-opacity="0.1"/>
<stop offset="1" stop-color="white" stop-opacity="0"/>
</linearGradient>
<linearGradient id="paint3_linear_635_76" x1="228.274" y1="55.6782" x2="352.192" y2="216.155" gradientUnits="userSpaceOnUse">
<stop stop-color="white" stop-opacity="0.1"/>
<stop offset="1" stop-color="white" stop-opacity="0"/>
</linearGradient>
<linearGradient id="paint4_linear_635_76" x1="683.673" y1="409.085" x2="811.619" y2="441.244" gradientUnits="userSpaceOnUse">
<stop stop-color="white" stop-opacity="0.1"/>
<stop offset="1" stop-color="white" stop-opacity="0"/>
</linearGradient>
<linearGradient id="paint5_linear_635_76" x1="14.46" y1="118.165" x2="-29.1963" y2="-79.9756" gradientUnits="userSpaceOnUse">
<stop stop-color="white" stop-opacity="0.1"/>
<stop offset="1" stop-color="white" stop-opacity="0"/>
</linearGradient>
<linearGradient id="paint6_linear_635_76" x1="738" y1="86.6382" x2="866.293" y2="25.6549" gradientUnits="userSpaceOnUse">
<stop stop-color="white" stop-opacity="0.1"/>
<stop offset="1" stop-color="white" stop-opacity="0"/>
</linearGradient>
<clipPath id="clip0_635_76">
<rect width="1071" height="725" fill="white"/>
</clipPath>
</defs>
</svg>
